<?xml version="1.0" standalone="no"?>
<!DOCTYPE svg PUBLIC "-//W3C//DTD SVG 20010904//EN"
 "http://www.w3.org/TR/2001/REC-SVG-20010904/DTD/svg10.dtd">
<svg version="1.0" xmlns="http://www.w3.org/2000/svg"
 width="260.000000pt" height="260.000000pt" viewBox="0 0 260.000000 260.000000"
 preserveAspectRatio="xMidYMid meet">
<metadata>
Created by potrace 1.14, written by Peter Selinger 2001-2017
</metadata>
<g transform="translate(0.000000,260.000000) scale(0.100000,-0.100000)"
fill="#000000" stroke="none">
<path d="M1257 2274 c-1 -1 -32 -4 -68 -8 -36 -3 -86 -12 -112 -20 -26 -8 -47
-12 -47 -10 0 1 -30 -8 -67 -22 -465 -174 -730 -675 -608 -1149 70 -269 235
-483 480 -620 211 -118 488 -150 726 -84 350 97 628 398 694 753 69 365 -72
738 -362 957 -129 98 -278 163 -433 189 -63 11 -196 20 -203 14z m188 -509
c284 -96 419 -402 295 -670 -78 -169 -233 -271 -423 -280 -265 -11 -487 192
-502 459 -5 90 8 153 50 241 59 125 186 227 321 259 73 17 192 13 259 -9z"/>
</g>
</svg>
